<svg width="30" height="37" viewBox="0 0 30 37" fill="none" xmlns="http://www.w3.org/2000/svg">
<path d="M3.69329 5.75232C3.42939 10.7546 4.21113 15.7569 5.98863 20.4401C7.76612 25.1233 10.5003 29.3846 14.0168 32.952C14.3596 33.3009 14.7645 33.5828 15.2107 33.7831C16.1389 34.2041 17.1963 34.2394 18.1505 33.8814L19.1525 33.5005C19.5294 33.3576 19.8745 33.1419 20.1679 32.8656C20.4614 32.5893 20.6976 32.2579 20.8629 31.8903C21.0283 31.5227 21.1196 31.1262 21.1316 30.7233C21.1436 30.3204 21.0762 29.9191 20.9331 29.5423L19.2997 25.2383C19.0097 24.4781 18.4302 23.8638 17.6882 23.53C16.9461 23.1962 16.102 23.1702 15.3408 23.4576C14.9602 23.6006 14.5385 23.5873 14.1677 23.4205C13.7969 23.2538 13.5071 22.9471 13.3616 22.5675L10.095 13.9578C9.9512 13.5773 9.96414 13.1553 10.131 12.7843C10.2978 12.4133 10.6049 12.1236 10.985 11.9787C11.3619 11.8358 11.7069 11.6201 12.0004 11.3438C12.2939 11.0675 12.53 10.7361 12.6954 10.3685C12.8607 10.0009 12.952 9.60438 12.9641 9.2015C12.9761 8.79862 12.9086 8.39731 12.7655 8.02051L11.1321 3.71483C10.8424 2.9547 10.2631 2.34047 9.52124 2.00678C8.77936 1.6731 7.93544 1.6472 7.17449 1.93476L6.17195 2.31523C5.47041 2.5867 4.86276 3.05597 4.42277 3.6661C3.98278 4.27622 3.72937 5.00096 3.69329 5.75232Z" fill="white"/>
<circle cx="19.0215" cy="11.5" r="3" fill="white"/>
<circle cx="26.5215" cy="11.5" r="3" fill="white"/>
</svg>
