<svg width="17" height="16" viewBox="0 0 17 16" fill="none" xmlns="http://www.w3.org/2000/svg">
<path d="M16.4864 7.19519L1.27599 0.0837822C0.962833 -0.0611128 0.593309 -0.0157776 0.326679 0.202009C0.0591539 0.419796 -0.0562665 0.770922 0.0269436 1.10338L1.76183 7.99967L0.0269436 14.896C-0.0571612 15.2284 0.0591539 15.5804 0.326679 15.7982C0.490415 15.9316 0.690834 16 0.894833 16C1.02457 16 1.15431 15.9724 1.27599 15.9156L16.4864 8.80415C16.7996 8.65747 17 8.34457 17 7.99967C17 7.65476 16.7996 7.34186 16.4864 7.19519ZM2.21993 13.5083L2.97061 10.5242L8.05268 7.99967L2.97061 5.47512L2.21993 2.49099L14.0035 7.99967L2.21993 13.5083Z" fill="#F0F3F6"/>
</svg>
