<svg width="180" height="73" viewBox="0 0 180 73" fill="none" xmlns="http://www.w3.org/2000/svg">
<path d="M77.2436 72.2406C63.2006 72.2406 51.4172 62.5084 51.4172 47.2569C51.4172 32.0054 63.2006 22.6561 77.2436 22.6561C91.3717 22.6561 103.164 32.0181 103.164 47.2654C103.164 62.5127 91.3887 72.2406 77.2436 72.2406ZM77.2436 35.3714C70.0391 35.3714 66.2943 41.2652 66.2943 47.2526C66.2943 53.24 70.1242 59.3253 77.3372 59.3253C84.5502 59.3253 88.3801 53.2443 88.3801 47.2526C88.3801 41.261 84.4778 35.3714 77.2436 35.3714Z" fill="#F0F3F6"/>
<path d="M160.348 70.7426H141.356L126.105 48.3802H125.824V70.7426H110.381V0H125.82V43.0439H126.1L140.994 24.1412H159.616L141.633 45.2099L160.348 70.7426Z" fill="#F0F3F6"/>
<path d="M171.204 17.6857C166.246 17.6857 162.408 13.8558 162.408 9.26412C162.408 4.77462 166.238 0.84259 171.204 0.84259C176.068 0.84259 180 4.58738 180 9.26412C180 14.0345 176.068 17.6857 171.204 17.6857ZM163.531 70.7426V24.1412H178.877V70.7426H163.531Z" fill="#F0F3F6"/>
<path d="M19.4206 71.5043C20.0163 71.1426 19.1823 71.5894 19.4206 71.5043C23.5313 70.0446 26.8804 66.1637 28.7443 62.5082C32.4508 55.2484 33.2167 47.4652 32.4337 39.5075C32.0493 36.3308 31.4407 33.1853 30.6124 30.0945C30.0039 27.605 29.2081 27.1838 26.6634 27.3327C22.5824 27.571 19.9738 25.8858 18.8929 21.9708C17.5566 17.1836 17.3166 12.1567 18.1907 7.264C19.0886 2.25108 22.2122 -0.119207 27.34 0.0297334C34.8125 0.255272 39.9914 4.34902 43.9362 10.2896C46.7373 14.619 48.3515 19.6085 48.6172 24.7582C49.4385 37.2649 47.098 49.1802 41.2 60.3082C39.5369 63.5945 37.2012 66.4943 34.3444 68.8191C30.0081 72.2447 25.1527 72.832 19.4206 71.5043Z" fill="#F0F3F6"/>
<path d="M11.4969 28.4987L23.493 63.5764C23.637 64.0086 23.6672 64.4705 23.5808 64.9177C23.4943 65.365 23.2941 65.7823 22.9994 66.1297C21.1738 68.2829 18.3779 72.6618 11.216 72.1596C11.1619 72.1558 11.1107 72.1332 11.0713 72.0958C10.3181 71.3724 4.02006 62.3934 0.00716876 35.8224C-0.0189786 35.5416 0.026663 35.2588 0.139807 35.0005C0.252952 34.7422 0.429889 34.5169 0.653999 34.3457L8.66701 27.6817C8.89179 27.4997 9.15719 27.3747 9.44064 27.3174C9.72409 27.26 10.0172 27.2719 10.295 27.3521C10.5729 27.4324 10.8273 27.5785 11.0365 27.7781C11.2457 27.9778 11.4037 28.225 11.4969 28.4987Z" fill="#F0F3F6"/>
</svg>
