<svg width="195" height="78" viewBox="0 0 195 78" fill="none" xmlns="http://www.w3.org/2000/svg">
<g clip-path="url(#clip0)">
<path d="M83.4482 78C68.2928 78 55.5623 67.4924 55.5623 51.023C55.5623 34.5535 68.2928 24.4503 83.4482 24.4503C98.7032 24.4503 111.436 34.554 111.436 51.023C111.436 67.492 98.705 78 83.4482 78ZM83.4482 38.1918C75.6686 38.1918 71.6273 44.5566 71.6273 51.023C71.6273 57.4894 75.7696 64.0573 83.5497 64.0573C91.3298 64.0573 95.4725 57.4894 95.4725 51.0212C95.4725 44.5529 91.2282 38.1918 83.4482 38.1918Z" fill="#25215A"/>
<path d="M173.169 76.3849H152.659L136.189 52.237H135.886V76.3849H119.215V0H135.886V46.4763H136.189L152.254 26.0668H172.36L152.961 48.8004L173.169 76.3849Z" fill="#25215A"/>
<path d="M184.889 19.0959C179.534 19.0959 175.391 14.9531 175.391 10.0022C175.391 5.15271 179.534 0.908875 184.889 0.908875C190.142 0.908875 194.386 4.95008 194.386 10.0022C194.386 15.1549 190.142 19.0959 184.889 19.0959ZM176.603 76.3849V26.0668H193.173V76.3849H176.603Z" fill="#25215A"/>
<path d="M20.9972 77.2064C21.6405 76.8168 20.7395 77.2983 20.9972 77.2064C25.4345 75.6299 29.0521 71.4385 31.066 67.4929C35.0677 59.654 35.8948 51.2509 35.0502 42.6557C34.6353 39.2248 33.978 35.8275 33.0832 32.4895C32.4252 29.7996 31.5669 29.3466 28.82 29.506C24.4154 29.7615 21.595 27.9438 20.4302 23.7165C18.9875 18.5474 18.7287 13.1195 19.673 7.83655C20.6439 2.42194 24.0138 -0.135571 29.552 0.0316829C37.6192 0.276131 43.2108 4.69733 47.4514 11.1095C50.4844 15.788 52.2329 21.1823 52.5214 26.7505C53.4077 40.2567 50.881 53.1187 44.5134 65.1352C42.7148 68.6763 40.1924 71.8001 37.1097 74.3043C32.4224 78.0087 27.1925 78.6391 20.9972 77.2064Z" fill="url(#paint0_linear)"/>
<path d="M12.4429 30.771L25.3964 68.6462C25.5559 69.1156 25.5906 69.6185 25.4972 70.1055C25.4038 70.5924 25.1853 71.0467 24.8634 71.4238C22.8917 73.7502 19.8729 78.4783 12.1411 77.9347C12.0819 77.9306 12.026 77.9057 11.9835 77.8644C11.1702 77.0833 4.37111 67.3881 0.0174534 38.6967C-0.0107654 38.3934 0.0385237 38.0879 0.160686 37.8089C0.282848 37.5298 0.473882 37.2864 0.715878 37.1014L9.36943 29.9076C9.61092 29.7067 9.89763 29.5675 10.2049 29.5021C10.5121 29.4366 10.8306 29.4467 11.1331 29.5317C11.4355 29.6167 11.7127 29.7738 11.9409 29.9897C12.1691 30.2056 12.3414 30.4737 12.4429 30.771Z" fill="url(#paint1_linear)"/>
</g>
<defs>
<linearGradient id="paint0_linear" x1="-4.89169" y1="-16.2552" x2="157.02" y2="30.6962" gradientUnits="userSpaceOnUse">
<stop stop-color="#25215A"/>
<stop offset="0.5" stop-color="#228BCC"/>
<stop offset="0.75" stop-color="#38B099"/>
<stop offset="1" stop-color="#4BAF50"/>
</linearGradient>
<linearGradient id="paint1_linear" x1="-90.5251" y1="-6.00748" x2="123.81" y2="86.6687" gradientUnits="userSpaceOnUse">
<stop stop-color="#25215A"/>
<stop offset="0.5" stop-color="#228BCC"/>
<stop offset="0.75" stop-color="#38B099"/>
<stop offset="1" stop-color="#4BAF50"/>
</linearGradient>
<clipPath id="clip0">
<rect width="194.386" height="78" fill="white"/>
</clipPath>
</defs>
</svg>
