<svg width="49" height="49" viewBox="0 0 49 49" fill="none" xmlns="http://www.w3.org/2000/svg">
<g filter="url(#filter0_d)">
<path d="M45 20.5C45 31.8218 35.8218 41 24.5 41C13.1782 41 4 31.8218 4 20.5C4 9.17816 13.1782 0 24.5 0C35.8218 0 45 9.17816 45 20.5Z" fill="#0874F0"/>
</g>
<path d="M14.843 11.7466C14.6175 16.0194 15.2853 20.2922 16.8036 24.2924C18.3218 28.2927 20.6573 31.9325 23.661 34.9797C23.9537 35.2777 24.2996 35.5185 24.6807 35.6896C25.4736 36.0492 26.3768 36.0794 27.1919 35.7735L28.0477 35.4482C28.3697 35.3261 28.6644 35.1419 28.915 34.9059C29.1657 34.6699 29.3674 34.3868 29.5087 34.0728C29.6499 33.7588 29.7279 33.4201 29.7382 33.076C29.7485 32.7319 29.6909 32.3891 29.5686 32.0672L28.1734 28.3909C27.9258 27.7415 27.4308 27.2168 26.7969 26.9317C26.1631 26.6466 25.4421 26.6244 24.7919 26.8699C24.4668 26.9921 24.1066 26.9807 23.7899 26.8382C23.4731 26.6958 23.2256 26.4338 23.1013 26.1096L20.3111 18.7554C20.1883 18.4304 20.1993 18.07 20.3418 17.7531C20.4843 17.4362 20.7466 17.1888 21.0713 17.065C21.3932 16.943 21.6879 16.7587 21.9386 16.5227C22.1893 16.2867 22.391 16.0036 22.5322 15.6896C22.6735 15.3757 22.7515 15.0369 22.7617 14.6928C22.772 14.3487 22.7144 14.0059 22.5922 13.684L21.197 10.0063C20.9495 9.357 20.4547 8.83234 19.821 8.54731C19.1873 8.26229 18.4665 8.24017 17.8165 8.4858L16.9601 8.81078C16.3609 9.04266 15.8419 9.4435 15.4661 9.96465C15.0902 10.4858 14.8738 11.1048 14.843 11.7466Z" fill="white"/>
<path d="M30.4985 16.6562C30.4985 18.0714 29.3513 19.2187 27.936 19.2187C26.5208 19.2187 25.3735 18.0714 25.3735 16.6562C25.3735 15.241 26.5208 14.0937 27.936 14.0937C29.3513 14.0937 30.4985 15.241 30.4985 16.6562Z" fill="white"/>
<path d="M36.9048 16.6562C36.9048 18.0714 35.7575 19.2187 34.3423 19.2187C32.9271 19.2187 31.7798 18.0714 31.7798 16.6562C31.7798 15.241 32.9271 14.0937 34.3423 14.0937C35.7575 14.0937 36.9048 15.241 36.9048 16.6562Z" fill="white"/>
<defs>
<filter id="filter0_d" x="0" y="0" width="49" height="49" filterUnits="userSpaceOnUse" color-interpolation-filters="sRGB">
<feFlood flood-opacity="0" result="BackgroundImageFix"/>
<feColorMatrix in="SourceAlpha" type="matrix" values="0 0 0 0 0 0 0 0 0 0 0 0 0 0 0 0 0 0 127 0"/>
<feOffset dy="4"/>
<feGaussianBlur stdDeviation="2"/>
<feColorMatrix type="matrix" values="0 0 0 0 0 0 0 0 0 0 0 0 0 0 0 0 0 0 0.1 0"/>
<feBlend mode="normal" in2="BackgroundImageFix" result="effect1_dropShadow"/>
<feBlend mode="normal" in="SourceGraphic" in2="effect1_dropShadow" result="shape"/>
</filter>
</defs>
</svg>
