<svg width="156" height="156" viewBox="0 0 156 156" fill="none" xmlns="http://www.w3.org/2000/svg">
<g filter="url(#filter0_d)">
<path d="M78 0C37.1323 0 4 33.1323 4 74C4 114.868 37.1323 148 78 148C118.868 148 152 114.868 152 74C152 33.1323 118.868 0 78 0ZM44.1797 84.6953H36.9531V63.3047H44.1797V84.6953ZM54.875 95.3906H47.6484V52.6094H54.875V95.3906ZM65.5703 116.781H58.3438V31.2188H65.5703V116.781ZM76.2656 95.3906H69.0391V52.6094H76.2656V95.3906ZM86.9609 84.6953H79.7344V63.3047H86.9609V84.6953ZM97.6562 95.3906H90.4297V52.6094H97.6562V95.3906ZM108.352 109.844H101.125V38.1562H108.352V109.844ZM119.047 84.6953H111.82V63.3047H119.047V84.6953Z" fill="#161C2F"/>
</g>
<defs>
<filter id="filter0_d" x="0" y="0" width="156" height="156" filterUnits="userSpaceOnUse" color-interpolation-filters="sRGB">
<feFlood flood-opacity="0" result="BackgroundImageFix"/>
<feColorMatrix in="SourceAlpha" type="matrix" values="0 0 0 0 0 0 0 0 0 0 0 0 0 0 0 0 0 0 127 0"/>
<feOffset dy="4"/>
<feGaussianBlur stdDeviation="2"/>
<feColorMatrix type="matrix" values="0 0 0 0 0 0 0 0 0 0 0 0 0 0 0 0 0 0 0.15 0"/>
<feBlend mode="normal" in2="BackgroundImageFix" result="effect1_dropShadow"/>
<feBlend mode="normal" in="SourceGraphic" in2="effect1_dropShadow" result="shape"/>
</filter>
</defs>
</svg>
