<svg width="49" height="49" viewBox="0 0 49 49" fill="none" xmlns="http://www.w3.org/2000/svg">
<g filter="url(#filter0_d)">
<path d="M45 20.5C45 31.8218 35.8218 41 24.5 41C13.1782 41 4 31.8218 4 20.5C4 9.17816 13.1782 0 24.5 0C35.8218 0 45 9.17816 45 20.5Z" fill="#2BDE73"/>
</g>
<path d="M15.3039 10.7658C15.4594 15.1461 16.5264 19.4459 18.4366 23.3907C20.3469 27.3356 23.0585 30.839 26.3984 33.6773C26.7241 33.955 27.0987 34.1694 27.503 34.3097C28.3445 34.605 29.2689 34.5543 30.073 34.1687L30.917 33.7595C31.2345 33.6059 31.5186 33.3912 31.7531 33.1278C31.9875 32.8644 32.1678 32.5573 32.2836 32.2242C32.3994 31.8911 32.4484 31.5384 32.4279 31.1863C32.4073 30.8342 32.3176 30.4897 32.1638 30.1723L30.4084 26.5468C30.0971 25.9065 29.5446 25.4158 28.8721 25.1821C28.1996 24.9484 27.4619 24.9907 26.8206 25.2999C26.4999 25.4539 26.1313 25.4748 25.7952 25.3581C25.4592 25.2413 25.183 24.9963 25.0269 24.6767L21.5161 17.4242C21.3614 17.1037 21.3402 16.7349 21.457 16.3987C21.5738 16.0625 21.8192 15.7863 22.1393 15.6307C22.4567 15.4771 22.7408 15.2625 22.9753 14.999C23.2098 14.7356 23.3901 14.4286 23.5059 14.0954C23.6217 13.7623 23.6707 13.4096 23.6501 13.0575C23.6296 12.7055 23.5398 12.3609 23.3861 12.0435L21.6305 8.41657C21.3194 7.77638 20.7671 7.28566 20.0948 7.05201C19.4225 6.81835 18.6849 6.86083 18.0438 7.17013L17.1993 7.57902C16.6088 7.8697 16.1154 8.32556 15.7789 8.89126C15.4424 9.45696 15.2774 10.1082 15.3039 10.7658Z" fill="white"/>
<defs>
<filter id="filter0_d" x="0" y="0" width="49" height="49" filterUnits="userSpaceOnUse" color-interpolation-filters="sRGB">
<feFlood flood-opacity="0" result="BackgroundImageFix"/>
<feColorMatrix in="SourceAlpha" type="matrix" values="0 0 0 0 0 0 0 0 0 0 0 0 0 0 0 0 0 0 127 0"/>
<feOffset dy="4"/>
<feGaussianBlur stdDeviation="2"/>
<feColorMatrix type="matrix" values="0 0 0 0 0 0 0 0 0 0 0 0 0 0 0 0 0 0 0.1 0"/>
<feBlend mode="normal" in2="BackgroundImageFix" result="effect1_dropShadow"/>
<feBlend mode="normal" in="SourceGraphic" in2="effect1_dropShadow" result="shape"/>
</filter>
</defs>
</svg>
